<mxfile host="Electron" modified="2023-07-28T22:46:59.460Z" agent="Mozilla/5.0 (Windows NT 10.0; Win64; x64) AppleWebKit/537.36 (KHTML, like Gecko) draw.io/21.4.0 Chrome/112.0.5615.204 Electron/24.5.1 Safari/537.36" etag="pyoZgw8ztG0Lp0rfzb-x" version="21.4.0" type="device">
  <diagram name="Page-1" id="BqHBFgcTPOocfmItD8Tv">
    <mxGraphModel dx="978" dy="599" grid="1" gridSize="10" guides="1" tooltips="1" connect="1" arrows="1" fold="1" page="1" pageScale="1" pageWidth="850" pageHeight="1100" math="0" shadow="0">
      <root>
        <mxCell id="0" />
        <mxCell id="1" parent="0" />
        <mxCell id="qPAEyGUihb_5tQbSRS_Z-4" style="edgeStyle=orthogonalEdgeStyle;rounded=0;orthogonalLoop=1;jettySize=auto;html=1;entryX=0;entryY=0.5;entryDx=0;entryDy=0;fillColor=#1ba1e2;strokeColor=#006EAF;" edge="1" parent="1" source="qPAEyGUihb_5tQbSRS_Z-1" target="qPAEyGUihb_5tQbSRS_Z-2">
          <mxGeometry relative="1" as="geometry">
            <mxPoint x="240" y="250" as="targetPoint" />
          </mxGeometry>
        </mxCell>
        <mxCell id="qPAEyGUihb_5tQbSRS_Z-1" value="ELECTRODES IN" style="rounded=0;whiteSpace=wrap;html=1;" vertex="1" parent="1">
          <mxGeometry x="20" y="235" width="120" height="30" as="geometry" />
        </mxCell>
        <mxCell id="qPAEyGUihb_5tQbSRS_Z-21" style="edgeStyle=orthogonalEdgeStyle;rounded=0;orthogonalLoop=1;jettySize=auto;html=1;entryX=0;entryY=0.5;entryDx=0;entryDy=0;fillColor=#1ba1e2;strokeColor=#006EAF;" edge="1" parent="1" source="qPAEyGUihb_5tQbSRS_Z-2" target="qPAEyGUihb_5tQbSRS_Z-20">
          <mxGeometry relative="1" as="geometry">
            <Array as="points">
              <mxPoint x="520" y="250" />
              <mxPoint x="520" y="490" />
            </Array>
          </mxGeometry>
        </mxCell>
        <mxCell id="qPAEyGUihb_5tQbSRS_Z-2" value="MUX" style="rounded=0;whiteSpace=wrap;html=1;" vertex="1" parent="1">
          <mxGeometry x="320" y="230" width="60" height="40" as="geometry" />
        </mxCell>
        <mxCell id="qPAEyGUihb_5tQbSRS_Z-7" style="edgeStyle=orthogonalEdgeStyle;rounded=0;orthogonalLoop=1;jettySize=auto;html=1;entryX=0.75;entryY=1;entryDx=0;entryDy=0;fillColor=#e51400;strokeColor=#B20000;" edge="1" parent="1" source="qPAEyGUihb_5tQbSRS_Z-5" target="qPAEyGUihb_5tQbSRS_Z-1">
          <mxGeometry relative="1" as="geometry">
            <Array as="points">
              <mxPoint x="180" y="320" />
              <mxPoint x="110" y="320" />
            </Array>
          </mxGeometry>
        </mxCell>
        <mxCell id="qPAEyGUihb_5tQbSRS_Z-5" value="DEMUX +" style="rounded=0;whiteSpace=wrap;html=1;" vertex="1" parent="1">
          <mxGeometry x="170" y="340" width="70" height="40" as="geometry" />
        </mxCell>
        <mxCell id="qPAEyGUihb_5tQbSRS_Z-8" style="edgeStyle=orthogonalEdgeStyle;rounded=0;orthogonalLoop=1;jettySize=auto;html=1;entryX=0.25;entryY=1;entryDx=0;entryDy=0;strokeColor=#3D3D3D;" edge="1" parent="1" source="qPAEyGUihb_5tQbSRS_Z-6" target="qPAEyGUihb_5tQbSRS_Z-1">
          <mxGeometry relative="1" as="geometry" />
        </mxCell>
        <mxCell id="qPAEyGUihb_5tQbSRS_Z-6" value="DEMUX -" style="rounded=0;whiteSpace=wrap;html=1;" vertex="1" parent="1">
          <mxGeometry x="170" y="390" width="70" height="40" as="geometry" />
        </mxCell>
        <mxCell id="qPAEyGUihb_5tQbSRS_Z-13" style="edgeStyle=orthogonalEdgeStyle;rounded=0;orthogonalLoop=1;jettySize=auto;html=1;entryX=1;entryY=0.5;entryDx=0;entryDy=0;fillColor=#a20025;strokeColor=#6F0000;" edge="1" parent="1" source="qPAEyGUihb_5tQbSRS_Z-9" target="qPAEyGUihb_5tQbSRS_Z-5">
          <mxGeometry relative="1" as="geometry" />
        </mxCell>
        <mxCell id="qPAEyGUihb_5tQbSRS_Z-9" value="VOLTAGE&lt;br&gt;REGULATOR" style="rounded=0;whiteSpace=wrap;html=1;" vertex="1" parent="1">
          <mxGeometry x="290" y="340" width="90" height="40" as="geometry" />
        </mxCell>
        <mxCell id="qPAEyGUihb_5tQbSRS_Z-12" style="edgeStyle=orthogonalEdgeStyle;rounded=0;orthogonalLoop=1;jettySize=auto;html=1;entryX=1;entryY=0.5;entryDx=0;entryDy=0;strokeColor=#0A0A0A;" edge="1" parent="1" source="qPAEyGUihb_5tQbSRS_Z-10" target="qPAEyGUihb_5tQbSRS_Z-6">
          <mxGeometry relative="1" as="geometry" />
        </mxCell>
        <mxCell id="qPAEyGUihb_5tQbSRS_Z-10" value="VOLTAGE&lt;br&gt;REGULATOR" style="rounded=0;whiteSpace=wrap;html=1;" vertex="1" parent="1">
          <mxGeometry x="290" y="390" width="90" height="40" as="geometry" />
        </mxCell>
        <mxCell id="qPAEyGUihb_5tQbSRS_Z-15" style="edgeStyle=orthogonalEdgeStyle;rounded=0;orthogonalLoop=1;jettySize=auto;html=1;fillColor=#e3c800;strokeColor=#B09500;" edge="1" parent="1" source="qPAEyGUihb_5tQbSRS_Z-14">
          <mxGeometry relative="1" as="geometry">
            <mxPoint x="350" y="270" as="targetPoint" />
            <Array as="points">
              <mxPoint x="490" y="525" />
              <mxPoint x="490" y="290" />
              <mxPoint x="350" y="290" />
            </Array>
          </mxGeometry>
        </mxCell>
        <mxCell id="qPAEyGUihb_5tQbSRS_Z-14" value="MUX CTRL" style="rounded=0;whiteSpace=wrap;html=1;fillColor=#e3c800;fontColor=#000000;strokeColor=#B09500;" vertex="1" parent="1">
          <mxGeometry x="630" y="510" width="100" height="30" as="geometry" />
        </mxCell>
        <mxCell id="qPAEyGUihb_5tQbSRS_Z-17" style="edgeStyle=orthogonalEdgeStyle;rounded=0;orthogonalLoop=1;jettySize=auto;html=1;fillColor=#e3c800;strokeColor=#B09500;" edge="1" parent="1" source="qPAEyGUihb_5tQbSRS_Z-16">
          <mxGeometry relative="1" as="geometry">
            <mxPoint x="220" y="340" as="targetPoint" />
            <Array as="points">
              <mxPoint x="435" y="565" />
              <mxPoint x="435" y="320" />
              <mxPoint x="220" y="320" />
            </Array>
          </mxGeometry>
        </mxCell>
        <mxCell id="qPAEyGUihb_5tQbSRS_Z-16" value="DEMUX+ CTRL" style="rounded=0;whiteSpace=wrap;html=1;fillColor=#e3c800;fontColor=#000000;strokeColor=#B09500;" vertex="1" parent="1">
          <mxGeometry x="630" y="550" width="100" height="30" as="geometry" />
        </mxCell>
        <mxCell id="qPAEyGUihb_5tQbSRS_Z-19" style="edgeStyle=orthogonalEdgeStyle;rounded=0;orthogonalLoop=1;jettySize=auto;html=1;entryX=0.5;entryY=1;entryDx=0;entryDy=0;exitX=0;exitY=0.5;exitDx=0;exitDy=0;fillColor=#e3c800;strokeColor=#B09500;" edge="1" parent="1" source="qPAEyGUihb_5tQbSRS_Z-22" target="qPAEyGUihb_5tQbSRS_Z-6">
          <mxGeometry relative="1" as="geometry">
            <mxPoint x="430" y="485" as="sourcePoint" />
            <Array as="points">
              <mxPoint x="205" y="605" />
            </Array>
          </mxGeometry>
        </mxCell>
        <mxCell id="qPAEyGUihb_5tQbSRS_Z-20" value="DATA" style="rounded=0;whiteSpace=wrap;html=1;fillColor=#1ba1e2;fontColor=#ffffff;strokeColor=#006EAF;" vertex="1" parent="1">
          <mxGeometry x="630" y="480" width="100" height="20" as="geometry" />
        </mxCell>
        <mxCell id="qPAEyGUihb_5tQbSRS_Z-22" value="DEMUX- CTRL" style="rounded=0;whiteSpace=wrap;html=1;fillColor=#e3c800;fontColor=#000000;strokeColor=#B09500;" vertex="1" parent="1">
          <mxGeometry x="630" y="590" width="100" height="30" as="geometry" />
        </mxCell>
        <mxCell id="qPAEyGUihb_5tQbSRS_Z-25" style="edgeStyle=orthogonalEdgeStyle;rounded=0;orthogonalLoop=1;jettySize=auto;html=1;entryX=1;entryY=0.5;entryDx=0;entryDy=0;strokeColor=#000000;" edge="1" parent="1" source="qPAEyGUihb_5tQbSRS_Z-23" target="qPAEyGUihb_5tQbSRS_Z-9">
          <mxGeometry relative="1" as="geometry" />
        </mxCell>
        <mxCell id="qPAEyGUihb_5tQbSRS_Z-23" value="-5V" style="rounded=0;whiteSpace=wrap;html=1;fillColor=#000000;" vertex="1" parent="1">
          <mxGeometry x="630" y="345" width="100" height="30" as="geometry" />
        </mxCell>
        <mxCell id="qPAEyGUihb_5tQbSRS_Z-26" style="edgeStyle=orthogonalEdgeStyle;rounded=0;orthogonalLoop=1;jettySize=auto;html=1;entryX=1;entryY=0.5;entryDx=0;entryDy=0;fillColor=#a20025;strokeColor=#6F0000;" edge="1" parent="1" source="qPAEyGUihb_5tQbSRS_Z-24" target="qPAEyGUihb_5tQbSRS_Z-10">
          <mxGeometry relative="1" as="geometry" />
        </mxCell>
        <mxCell id="qPAEyGUihb_5tQbSRS_Z-24" value="5V" style="rounded=0;whiteSpace=wrap;html=1;fillColor=#a20025;fontColor=#ffffff;strokeColor=#6F0000;" vertex="1" parent="1">
          <mxGeometry x="630" y="395" width="100" height="30" as="geometry" />
        </mxCell>
        <mxCell id="qPAEyGUihb_5tQbSRS_Z-29" style="edgeStyle=orthogonalEdgeStyle;rounded=0;orthogonalLoop=1;jettySize=auto;html=1;entryX=0.25;entryY=0;entryDx=0;entryDy=0;fillColor=#a20025;strokeColor=#6F0000;" edge="1" parent="1" source="qPAEyGUihb_5tQbSRS_Z-27" target="qPAEyGUihb_5tQbSRS_Z-2">
          <mxGeometry relative="1" as="geometry">
            <Array as="points">
              <mxPoint x="600" y="225" />
              <mxPoint x="600" y="200" />
              <mxPoint x="335" y="200" />
            </Array>
          </mxGeometry>
        </mxCell>
        <mxCell id="qPAEyGUihb_5tQbSRS_Z-30" value="" style="edgeStyle=orthogonalEdgeStyle;rounded=0;orthogonalLoop=1;jettySize=auto;html=1;entryX=0;entryY=0.25;entryDx=0;entryDy=0;fillColor=#a20025;strokeColor=#6F0000;" edge="1" parent="1" source="qPAEyGUihb_5tQbSRS_Z-27" target="qPAEyGUihb_5tQbSRS_Z-5">
          <mxGeometry relative="1" as="geometry">
            <mxPoint x="580" y="540" as="targetPoint" />
            <Array as="points">
              <mxPoint x="600" y="225" />
              <mxPoint x="600" y="540" />
              <mxPoint x="120" y="540" />
              <mxPoint x="120" y="350" />
            </Array>
          </mxGeometry>
        </mxCell>
        <mxCell id="qPAEyGUihb_5tQbSRS_Z-27" value="VCC" style="rounded=0;whiteSpace=wrap;html=1;fillColor=#a20025;fontColor=#ffffff;strokeColor=#6F0000;" vertex="1" parent="1">
          <mxGeometry x="630" y="210" width="100" height="30" as="geometry" />
        </mxCell>
        <mxCell id="qPAEyGUihb_5tQbSRS_Z-32" style="edgeStyle=orthogonalEdgeStyle;rounded=0;orthogonalLoop=1;jettySize=auto;html=1;entryX=0.75;entryY=0;entryDx=0;entryDy=0;strokeColor=#030303;" edge="1" parent="1" source="qPAEyGUihb_5tQbSRS_Z-28" target="qPAEyGUihb_5tQbSRS_Z-2">
          <mxGeometry relative="1" as="geometry">
            <Array as="points">
              <mxPoint x="580" y="275" />
              <mxPoint x="580" y="210" />
              <mxPoint x="365" y="210" />
            </Array>
          </mxGeometry>
        </mxCell>
        <mxCell id="qPAEyGUihb_5tQbSRS_Z-33" style="edgeStyle=orthogonalEdgeStyle;rounded=0;orthogonalLoop=1;jettySize=auto;html=1;entryX=0;entryY=0.75;entryDx=0;entryDy=0;strokeColor=#000000;" edge="1" parent="1" source="qPAEyGUihb_5tQbSRS_Z-28" target="qPAEyGUihb_5tQbSRS_Z-5">
          <mxGeometry relative="1" as="geometry">
            <mxPoint x="260" y="470" as="targetPoint" />
            <Array as="points">
              <mxPoint x="580" y="275" />
              <mxPoint x="580" y="550" />
              <mxPoint x="140" y="550" />
              <mxPoint x="140" y="370" />
            </Array>
          </mxGeometry>
        </mxCell>
        <mxCell id="qPAEyGUihb_5tQbSRS_Z-28" value="VEE" style="rounded=0;whiteSpace=wrap;html=1;fillColor=#000000;" vertex="1" parent="1">
          <mxGeometry x="630" y="260" width="100" height="30" as="geometry" />
        </mxCell>
        <mxCell id="qPAEyGUihb_5tQbSRS_Z-31" value="" style="endArrow=classic;html=1;rounded=0;entryX=0;entryY=0.25;entryDx=0;entryDy=0;fillColor=#a20025;strokeColor=#6F0000;" edge="1" parent="1" target="qPAEyGUihb_5tQbSRS_Z-6">
          <mxGeometry width="50" height="50" relative="1" as="geometry">
            <mxPoint x="120" y="400" as="sourcePoint" />
            <mxPoint x="170" y="430" as="targetPoint" />
          </mxGeometry>
        </mxCell>
        <mxCell id="qPAEyGUihb_5tQbSRS_Z-34" value="" style="endArrow=classic;html=1;rounded=0;entryX=0;entryY=0.75;entryDx=0;entryDy=0;strokeColor=#000000;" edge="1" parent="1" target="qPAEyGUihb_5tQbSRS_Z-6">
          <mxGeometry width="50" height="50" relative="1" as="geometry">
            <mxPoint x="140" y="420" as="sourcePoint" />
            <mxPoint x="160" y="420" as="targetPoint" />
          </mxGeometry>
        </mxCell>
        <mxCell id="qPAEyGUihb_5tQbSRS_Z-78" style="edgeStyle=orthogonalEdgeStyle;rounded=0;orthogonalLoop=1;jettySize=auto;html=1;entryX=0;entryY=0.5;entryDx=0;entryDy=0;startArrow=classic;startFill=1;" edge="1" parent="1" source="qPAEyGUihb_5tQbSRS_Z-50" target="qPAEyGUihb_5tQbSRS_Z-75">
          <mxGeometry relative="1" as="geometry" />
        </mxCell>
        <mxCell id="qPAEyGUihb_5tQbSRS_Z-79" style="edgeStyle=orthogonalEdgeStyle;rounded=0;orthogonalLoop=1;jettySize=auto;html=1;entryX=0;entryY=0.5;entryDx=0;entryDy=0;startArrow=classic;startFill=1;" edge="1" parent="1" source="qPAEyGUihb_5tQbSRS_Z-50" target="qPAEyGUihb_5tQbSRS_Z-76">
          <mxGeometry relative="1" as="geometry" />
        </mxCell>
        <mxCell id="qPAEyGUihb_5tQbSRS_Z-80" style="edgeStyle=orthogonalEdgeStyle;rounded=0;orthogonalLoop=1;jettySize=auto;html=1;entryX=0;entryY=0.5;entryDx=0;entryDy=0;startArrow=classic;startFill=1;" edge="1" parent="1" source="qPAEyGUihb_5tQbSRS_Z-50" target="qPAEyGUihb_5tQbSRS_Z-77">
          <mxGeometry relative="1" as="geometry" />
        </mxCell>
        <mxCell id="qPAEyGUihb_5tQbSRS_Z-50" value="Electrode Wire" style="rounded=0;whiteSpace=wrap;html=1;" vertex="1" parent="1">
          <mxGeometry x="20" y="80" width="120" height="20" as="geometry" />
        </mxCell>
        <mxCell id="qPAEyGUihb_5tQbSRS_Z-75" value="DATA OUT" style="rounded=0;whiteSpace=wrap;html=1;" vertex="1" parent="1">
          <mxGeometry x="180" y="50" width="120" height="20" as="geometry" />
        </mxCell>
        <mxCell id="qPAEyGUihb_5tQbSRS_Z-76" value="CHARGE IN +" style="rounded=0;whiteSpace=wrap;html=1;" vertex="1" parent="1">
          <mxGeometry x="180" y="80" width="120" height="20" as="geometry" />
        </mxCell>
        <mxCell id="qPAEyGUihb_5tQbSRS_Z-77" value="CHARGE IN -" style="rounded=0;whiteSpace=wrap;html=1;" vertex="1" parent="1">
          <mxGeometry x="180" y="110" width="120" height="20" as="geometry" />
        </mxCell>
      </root>
    </mxGraphModel>
  </diagram>
</mxfile>
